<svg width="143" height="75" viewBox="0 0 143 75" fill="none" xmlns="http://www.w3.org/2000/svg">
<path d="M28.594 15.78C29.2967 15.916 29.818 16.154 30.158 16.494C30.5207 16.834 30.702 17.2307 30.702 17.684C30.702 18.432 30.4867 18.976 30.056 19.316C29.648 19.656 28.9907 19.792 28.084 19.724C26.044 19.5653 24.446 19.4633 23.29 19.418C22.1567 19.35 20.6607 19.3047 18.802 19.282C17.9633 23.4527 17.1927 27.646 16.49 31.862C16.2407 33.4033 15.98 35.194 15.708 37.234C15.436 39.2513 15.2547 40.8833 15.164 42.13C15.1187 42.7873 14.8467 43.2973 14.348 43.66C13.8493 44 13.2487 44.17 12.546 44.17C11.798 44.17 11.22 43.9887 10.812 43.626C10.404 43.2633 10.2 42.7873 10.2 42.198C10.2 41.654 10.2793 40.7587 10.438 39.512C10.6193 38.2427 10.8233 36.9167 11.05 35.534C11.2993 34.1513 11.492 32.95 11.628 31.93C11.8773 30.2073 12.1607 28.496 12.478 26.796C12.7953 25.096 13.1127 23.4867 13.43 21.968C13.498 21.628 13.5773 21.2427 13.668 20.812C13.7587 20.3587 13.8607 19.86 13.974 19.316C11.7527 19.384 10.0073 19.5653 8.738 19.86C7.46867 20.1547 6.562 20.574 6.018 21.118C5.49667 21.6393 5.236 22.3193 5.236 23.158C5.236 23.9287 5.46267 24.6653 5.916 25.368C6.00667 25.5267 6.052 25.6967 6.052 25.878C6.052 26.3087 5.79133 26.7167 5.27 27.102C4.77133 27.4647 4.25 27.646 3.706 27.646C3.32067 27.646 3.00333 27.5327 2.754 27.306C2.30067 26.9207 1.92667 26.3767 1.632 25.674C1.33733 24.9487 1.19 24.1327 1.19 23.226C1.19 21.2993 1.81333 19.758 3.06 18.602C4.32933 17.4233 6.24467 16.562 8.806 16.018C11.39 15.474 14.6993 15.202 18.734 15.202C21.2273 15.202 23.2107 15.2473 24.684 15.338C26.18 15.4287 27.4833 15.576 28.594 15.78ZM26.3003 44.17C24.895 44.17 23.773 43.66 22.9343 42.64C22.0957 41.62 21.6763 40.2827 21.6763 38.628C21.6763 36.8147 22.0957 35.1033 22.9343 33.494C23.773 31.862 24.8837 30.5587 26.2663 29.584C27.6717 28.5867 29.1563 28.088 30.7203 28.088C31.219 28.088 31.5477 28.19 31.7063 28.394C31.8877 28.5753 32.035 28.9153 32.1483 29.414C32.6243 29.3233 33.123 29.278 33.6443 29.278C34.755 29.278 35.3103 29.6747 35.3103 30.468C35.3103 30.944 35.1403 32.0773 34.8003 33.868C34.279 36.4747 34.0183 38.288 34.0183 39.308C34.0183 39.648 34.0977 39.92 34.2563 40.124C34.4377 40.328 34.6643 40.43 34.9363 40.43C35.367 40.43 35.8883 40.158 36.5003 39.614C37.1123 39.0473 37.9397 38.1407 38.9823 36.894C39.2543 36.5767 39.5603 36.418 39.9003 36.418C40.195 36.418 40.4217 36.554 40.5803 36.826C40.7617 37.098 40.8523 37.472 40.8523 37.948C40.8523 38.8547 40.637 39.5573 40.2063 40.056C39.277 41.212 38.291 42.1867 37.2483 42.98C36.2057 43.7733 35.197 44.17 34.2223 44.17C33.4743 44.17 32.783 43.9207 32.1483 43.422C31.5363 42.9007 31.0717 42.198 30.7543 41.314C29.5757 43.218 28.091 44.17 26.3003 44.17ZM27.5243 40.736C28.023 40.736 28.499 40.4413 28.9523 39.852C29.4057 39.2627 29.7343 38.4807 29.9383 37.506L31.1963 31.25C30.2443 31.2727 29.3603 31.6353 28.5443 32.338C27.751 33.018 27.1163 33.9247 26.6403 35.058C26.1643 36.1913 25.9263 37.3927 25.9263 38.662C25.9263 39.3647 26.0623 39.886 26.3343 40.226C26.629 40.566 27.0257 40.736 27.5243 40.736ZM44.413 44.918C43.2344 44.918 42.3277 44.646 41.693 44.102C41.081 43.558 40.775 42.946 40.775 42.266C40.775 41.6767 40.9904 41.1667 41.421 40.736C41.8517 40.3053 42.4864 40.09 43.325 40.09C43.6197 40.09 43.9597 40.124 44.345 40.192C44.753 40.2373 45.059 40.2713 45.263 40.294C45.2404 39.7047 45.1044 39.1493 44.855 38.628C44.6284 38.1067 44.3337 37.608 43.971 37.132C43.6084 36.6333 43.2684 36.2027 42.951 35.84C42.2484 37.1773 41.5457 38.288 40.843 39.172C40.163 40.056 39.415 40.8947 38.599 41.688C38.191 42.096 37.7604 42.3 37.307 42.3C36.9444 42.3 36.6497 42.1753 36.423 41.926C36.1964 41.654 36.083 41.3253 36.083 40.94C36.083 40.4867 36.2417 40.0673 36.559 39.682L37.001 39.138C38.2477 37.5967 39.1884 36.3273 39.823 35.33C40.2084 34.6727 40.6617 33.8 41.183 32.712C41.7044 31.6013 42.2144 30.4567 42.713 29.278C43.1437 28.2807 44.039 27.782 45.399 27.782C46.0337 27.782 46.4757 27.8387 46.725 27.952C46.9744 28.0653 47.099 28.2467 47.099 28.496C47.099 28.632 47.0537 28.8473 46.963 29.142C46.8724 29.4367 46.7477 29.7313 46.589 30.026C46.181 30.842 45.977 31.5333 45.977 32.1C45.977 32.44 46.0904 32.814 46.317 33.222C46.5664 33.63 46.9404 34.14 47.439 34.752C48.1644 35.704 48.7084 36.52 49.071 37.2C49.4564 37.8573 49.649 38.5827 49.649 39.376C49.649 39.6027 49.6264 39.92 49.581 40.328C50.6917 39.8973 51.995 38.7527 53.491 36.894C53.763 36.5767 54.069 36.418 54.409 36.418C54.7037 36.418 54.9304 36.554 55.089 36.826C55.2704 37.098 55.361 37.472 55.361 37.948C55.361 38.8093 55.1457 39.512 54.715 40.056C53.5817 41.4613 52.4937 42.4247 51.451 42.946C50.431 43.4447 49.1617 43.7167 47.643 43.762C46.7364 44.5327 45.6597 44.918 44.413 44.918ZM67.0488 40.464C67.9781 40.6453 68.4428 41.1553 68.4428 41.994C68.4428 42.5607 68.1821 43.0707 67.6608 43.524C67.1621 43.9547 66.4368 44.17 65.4848 44.17C63.8528 44.17 62.5155 43.6713 61.4728 42.674C60.4528 41.654 59.9428 40.328 59.9428 38.696C59.9428 37.812 60.3961 37.1773 61.3028 36.792C62.3001 36.3613 63.0141 35.908 63.4448 35.432C63.8755 34.9333 64.0908 34.3327 64.0908 33.63C64.0908 33.222 64.0001 32.916 63.8188 32.712C63.6601 32.508 63.4561 32.406 63.2068 32.406C62.5948 32.406 61.9148 32.848 61.1668 33.732C60.4415 34.616 59.7615 35.7607 59.1268 37.166C58.4921 38.5487 57.9935 39.9767 57.6308 41.45C57.3815 42.5153 57.0868 43.2407 56.7468 43.626C56.4295 43.9887 55.9195 44.17 55.2168 44.17C54.5141 44.17 53.9928 43.9207 53.6528 43.422C53.3355 42.9007 53.1201 42.1073 53.0068 41.042C52.8935 39.9767 52.8368 38.4127 52.8368 36.35C52.8368 32.8593 53.1881 29.2213 53.8908 25.436C54.6161 21.6507 55.6701 18.4773 57.0528 15.916C58.4581 13.332 60.1355 12.04 62.0848 12.04C63.1275 12.04 63.9661 12.4933 64.6008 13.4C65.2581 14.284 65.5868 15.44 65.5868 16.868C65.5868 19.1573 64.9181 21.5373 63.5808 24.008C62.2435 26.456 60.0675 29.3233 57.0528 32.61C56.9848 33.7887 56.9508 35.0013 56.9508 36.248C58.0388 33.4147 59.2855 31.3633 60.6908 30.094C62.0961 28.802 63.4108 28.156 64.6348 28.156C65.7681 28.156 66.6748 28.5413 67.3548 29.312C68.0575 30.0827 68.4088 31.0347 68.4088 32.168C68.4088 33.4147 68.0915 34.5593 67.4568 35.602C66.8221 36.6447 65.7341 37.574 64.1928 38.39C64.3288 39.07 64.6008 39.546 65.0088 39.818C65.4395 40.0673 66.1195 40.2827 67.0488 40.464ZM61.3708 15.406C60.9628 15.406 60.5095 15.9953 60.0108 17.174C59.5121 18.33 59.0248 19.9053 58.5488 21.9C58.0955 23.872 57.7215 26.0253 57.4268 28.36C58.8321 26.7053 59.9881 24.9033 60.8948 22.954C61.8241 21.0047 62.2888 19.2367 62.2888 17.65C62.2888 16.9247 62.2095 16.3693 62.0508 15.984C61.8921 15.5987 61.6655 15.406 61.3708 15.406Z" fill="#3C307B"/>
<path d="M76.27 44.35C75.57 44.35 75.01 44.1633 74.59 43.79C74.17 43.4167 73.96 42.9033 73.96 42.25V21.25C73.96 20.5967 74.17 20.0833 74.59 19.71C75.01 19.3367 75.57 19.15 76.27 19.15C76.97 19.15 77.53 19.3483 77.95 19.745C78.3933 20.1183 78.615 20.62 78.615 21.25V29.615H91.18V21.25C91.18 20.62 91.39 20.1183 91.81 19.745C92.2533 19.3483 92.825 19.15 93.525 19.15C94.225 19.15 94.785 19.3367 95.205 19.71C95.625 20.0833 95.835 20.5967 95.835 21.25V42.25C95.835 42.9033 95.625 43.4167 95.205 43.79C94.785 44.1633 94.225 44.35 93.525 44.35C92.825 44.35 92.2533 44.1633 91.81 43.79C91.39 43.3933 91.18 42.88 91.18 42.25V33.22H78.615V42.25C78.615 42.88 78.3933 43.3933 77.95 43.79C77.53 44.1633 76.97 44.35 76.27 44.35ZM106.871 44.35C104.467 44.35 102.589 43.6617 101.236 42.285C99.9057 40.885 99.2407 38.9483 99.2407 36.475V28.6C99.2407 27.9467 99.4507 27.4333 99.8707 27.06C100.291 26.6867 100.851 26.5 101.551 26.5C102.274 26.5 102.834 26.6867 103.231 27.06C103.627 27.4333 103.826 27.9467 103.826 28.6V36.475C103.826 37.805 104.176 38.8433 104.876 39.59C105.599 40.3367 106.602 40.71 107.886 40.71C109.542 40.71 110.826 40.185 111.736 39.135C112.669 38.085 113.136 36.6383 113.136 34.795V28.6C113.136 27.9467 113.346 27.4333 113.766 27.06C114.186 26.6867 114.746 26.5 115.446 26.5C116.169 26.5 116.729 26.6867 117.126 27.06C117.522 27.4333 117.721 27.9467 117.721 28.6V42.25C117.721 42.9267 117.522 43.4517 117.126 43.825C116.752 44.175 116.216 44.35 115.516 44.35C114.816 44.35 114.267 44.1633 113.871 43.79C113.474 43.4167 113.276 42.9033 113.276 42.25V41.235C112.412 42.3083 111.456 43.1017 110.406 43.615C109.379 44.105 108.201 44.35 106.871 44.35ZM123.224 44.35C122.501 44.35 121.941 44.1633 121.544 43.79C121.147 43.4167 120.949 42.9033 120.949 42.25V19.535C120.949 18.8817 121.147 18.3683 121.544 17.995C121.941 17.6217 122.501 17.435 123.224 17.435C123.924 17.435 124.484 17.6217 124.904 17.995C125.324 18.3683 125.534 18.8817 125.534 19.535L125.569 29.23C126.386 28.3433 127.366 27.6667 128.509 27.2C129.652 26.7333 130.866 26.5 132.149 26.5C135.042 26.5 137.306 27.2933 138.939 28.88C140.572 30.4433 141.389 32.625 141.389 35.425C141.389 38.225 140.561 40.4183 138.904 42.005C137.271 43.5683 134.984 44.35 132.044 44.35C130.714 44.35 129.547 44.14 128.544 43.72C127.541 43.2767 126.537 42.5533 125.534 41.55V42.25C125.534 42.9033 125.324 43.4167 124.904 43.79C124.484 44.1633 123.924 44.35 123.224 44.35ZM131.344 40.71C133.047 40.71 134.377 40.2433 135.334 39.31C136.291 38.3767 136.769 37.0817 136.769 35.425C136.769 33.7683 136.291 32.4733 135.334 31.54C134.377 30.6067 133.047 30.14 131.344 30.14C129.524 30.14 128.101 30.6067 127.074 31.54C126.047 32.4733 125.534 33.7683 125.534 35.425C125.534 37.0817 126.047 38.3767 127.074 39.31C128.101 40.2433 129.524 40.71 131.344 40.71Z" fill="#CB6CE6"/>
<path d="M114.96 56.8786C114.95 56.9472 114.95 56.9472 114.862 57.0041C114.251 56.8426 113.707 56.7612 113.096 56.5997C111.719 56.2534 110.341 55.9071 108.953 55.6293C107.343 55.2481 105.722 54.9355 104.023 54.6113C102.946 54.38 101.879 54.0802 100.802 53.8489C98.9584 53.4329 97.1045 53.0854 95.3386 52.681C93.7177 52.3683 92.1745 52.0673 90.5537 51.7547C89.777 51.6385 88.9226 51.5106 88.1561 51.3258C86.525 51.0818 84.9041 50.7691 83.3507 50.5367C82.4963 50.4088 81.7196 50.2926 80.8652 50.1647C80.0885 50.0485 79.2341 49.9206 78.4471 49.873C77.3597 49.7102 76.2723 49.5475 75.1849 49.3848C74.0198 49.2104 72.7668 49.093 71.5914 48.9872C70.3384 48.8698 69.0957 48.6838 67.8427 48.5664C67.765 48.5548 67.6873 48.5432 67.6097 48.5315C66.7553 48.4037 65.9009 48.2758 65.0362 48.2165C64.5702 48.1468 64.0837 48.2141 63.6176 48.1444C62.7632 48.0165 61.9191 47.8201 61.0544 47.7608C59.0145 47.5957 56.9745 47.4306 54.8568 47.2539C53.5261 47.1248 52.2731 47.0074 50.9425 46.8783C49.7671 46.7725 48.5815 46.7353 47.3285 46.6179C46.1429 46.5806 44.9573 46.5433 43.7043 46.4259C42.208 46.3422 40.7015 46.327 39.2052 46.2432C37.7866 46.1711 36.4559 46.042 35.0271 46.0385C33.4428 46.0116 31.7707 46.0417 30.1762 46.0834C29.6999 46.0822 29.2237 46.081 29.0742 46.5492C28.935 46.9489 28.7855 47.4171 28.8793 47.8516C28.9731 48.2861 29.212 48.8124 29.5798 49.0076C30.0928 49.2946 30.7244 49.319 31.3458 49.412C32.2104 49.4713 33.0853 49.4621 33.95 49.5214C35.0579 49.547 36.2332 49.6528 37.3412 49.6785C38.2835 49.7494 39.3035 49.8319 40.2561 49.8343C41.2086 49.8367 42.2389 49.8507 43.1812 49.9217C43.9682 49.9693 44.7449 50.0856 45.5319 50.1333C46.8728 50.1938 48.224 50.1857 49.5649 50.2462C50.9059 50.3067 52.3245 50.3789 53.6552 50.5079C54.9184 50.5568 56.0938 50.6626 57.3468 50.78C58.6775 50.9091 59.9979 51.1067 61.4062 51.2473C61.4839 51.259 61.4839 51.259 61.5616 51.2706C62.3588 51.2497 63.2337 51.2405 64.0104 51.3567C64.6318 51.4497 65.3104 51.6914 65.9317 51.7844C66.6308 51.889 67.3503 51.8565 68.1271 51.9727C68.9814 52.1006 69.8256 52.297 70.6902 52.3563C71.467 52.4725 72.2642 52.4517 73.1288 52.511C73.9158 52.5587 74.6823 52.7434 75.5469 52.8028C76.1683 52.8957 76.8102 52.8516 77.3539 52.933C78.0529 53.0376 78.7417 53.2108 79.4408 53.3154C80.984 53.6164 82.5374 53.8488 84.0806 54.1498C84.702 54.2428 85.3233 54.3358 85.9345 54.4973C86.5558 54.5903 87.2446 54.7635 87.8557 54.925C88.8655 55.0761 89.8752 55.2272 90.8849 55.3783C92.2054 55.5759 93.5258 55.7735 94.8462 55.9711C95.3123 56.0408 95.6904 56.1675 96.1461 56.3057C96.8349 56.4789 97.5911 56.7322 98.2902 56.8368C99.1343 57.0332 100.077 57.1042 100.921 57.3006C102.386 57.5899 103.842 57.9479 105.297 58.3058C106.296 58.5254 107.296 58.7451 108.285 59.0333C109.051 59.218 109.808 59.4714 110.574 59.6561C111.418 59.8525 112.262 60.0489 113.174 60.3255C114.774 60.7752 116.287 61.2818 117.887 61.7316C118.042 61.7548 118.333 61.9384 118.312 62.0755C118.281 62.2811 118.152 62.6122 117.987 62.6575C117.128 63.0896 116.124 63.4299 115.276 63.7935C114.339 64.214 113.325 64.6229 112.388 65.0434C111.959 65.2595 111.54 65.407 111.043 65.5429C110.117 65.8948 109.201 66.1782 108.285 66.4616C106.329 66.7996 106.367 68.1368 106.307 69.5995C106.384 69.6111 106.307 69.5995 106.307 69.5995C106.266 69.8736 106.137 70.2047 106.261 70.4336C106.423 70.9483 106.915 71.3724 107.516 71.6024C107.816 71.7175 108.194 71.8441 108.526 71.7535C108.847 71.7315 109.11 71.5607 109.374 71.39C109.814 71.1054 110.409 70.844 110.626 70.456C111.07 69.6114 111.84 69.2362 112.622 68.7925C113.305 68.4742 114.122 68.3162 114.883 68.0096C115.985 67.5438 117.009 67.0664 118.111 66.6006C118.872 66.2939 119.633 65.9873 120.315 65.669C121.164 65.3054 122.033 64.8047 122.871 64.5097C123.29 64.3622 123.922 64.3866 124.409 64.3193C124.652 64.2856 124.828 64.1718 124.993 64.1265C125.159 64.0812 125.247 64.0242 125.412 63.9789C125.842 63.7629 126.261 63.6154 126.613 63.3877C126.789 63.2738 126.56 62.679 127.161 62.9091C127.161 62.9091 127.249 62.8521 127.259 62.7836C127.31 62.4409 127.216 62.0064 127.413 61.7554C127.971 61.2083 127.986 60.5798 127.679 59.9733C127.43 59.5155 126.938 59.0915 126.513 58.7476C126.3 58.5756 125.979 58.5976 125.679 58.4826C125.456 58.3792 125.332 58.1503 125.176 58.1271C124.208 57.7018 123.218 57.4136 122.338 56.9314C121.379 56.4376 120.607 55.7614 119.648 55.2676C118.845 54.797 118.032 54.395 117.141 53.9813C116.55 53.6827 115.872 53.441 115.281 53.1424C114.245 52.6369 113.219 52.063 112.261 51.5691C111.447 51.1671 110.567 50.6849 109.753 50.2829C109.385 50.0877 108.93 49.9494 108.484 49.7426C107.826 49.3638 107.178 48.9165 106.443 48.5261C105.862 48.1589 105.36 47.8034 104.769 47.5047C104.334 47.2294 103.841 46.8053 103.365 46.8041C102.49 46.8133 101.719 47.1885 101.373 47.9076C101.363 47.9762 101.42 48.1249 101.488 48.2051C101.477 48.2736 101.467 48.3422 101.457 48.4107C100.924 48.2608 101.028 48.6268 101.074 48.844C101.044 49.0496 101.246 49.2901 101.215 49.4958C101.268 50.2045 101.848 50.5716 102.439 50.8702C102.962 51.0887 103.418 51.227 103.941 51.4454C104.319 51.5721 104.687 51.7673 105.055 51.9625C105.2 52.0543 105.366 52.009 105.521 52.0322C105.889 52.2274 106.179 52.411 106.547 52.6062C107.205 52.985 107.863 53.3638 108.521 53.7426C109.256 54.133 110.013 54.3863 110.748 54.7767C111.562 55.1787 112.297 55.5691 113.033 55.9595C113.769 56.3499 114.359 56.6486 114.96 56.8786Z" fill="#FD97A9"/>
<path d="M114.96 56.8787C114.37 56.5801 113.779 56.2815 113.188 55.9829C112.375 55.5808 111.65 55.1219 110.904 54.8C110.168 54.4096 109.412 54.1563 108.676 53.7659C108.008 53.4557 107.36 53.0083 106.702 52.6296C106.257 52.4227 105.966 52.2391 105.599 52.0439C105.453 51.9522 105.288 51.9975 105.132 51.9742C104.754 51.8475 104.387 51.6523 104.019 51.4571C103.495 51.2387 103.04 51.1004 102.517 50.882C101.848 50.5717 101.258 50.2731 101.293 49.5075C101.246 49.2902 101.121 49.0614 101.152 48.8557C101.183 48.6501 101.079 48.2841 101.535 48.4224C101.545 48.3539 101.555 48.2853 101.565 48.2168C101.576 48.1482 101.441 47.9879 101.451 47.9194C101.885 47.1433 102.645 46.8367 103.443 46.8158C103.919 46.817 104.411 47.2411 104.847 47.5165C105.437 47.8151 106.018 48.1822 106.52 48.5378C107.178 48.9166 107.826 49.3639 108.562 49.7543C108.93 49.9495 109.385 50.0878 109.831 50.2946C110.722 50.7083 111.535 51.1103 112.338 51.5809C113.374 52.0863 114.323 52.6487 115.359 53.1541C115.949 53.4527 116.628 53.6944 117.219 53.993C118.032 54.3951 118.923 54.8087 119.726 55.2793C120.674 55.8417 121.457 56.4493 122.415 56.9431C123.296 57.4253 124.285 57.7135 125.254 58.1388C125.477 58.2422 125.612 58.4025 125.757 58.4943C126.057 58.6094 126.378 58.5873 126.591 58.7593C127.016 59.1032 127.508 59.5273 127.757 59.985C128.063 60.5915 128.049 61.22 127.49 61.7672C127.294 62.0181 127.388 62.4526 127.337 62.7953C127.326 62.8639 127.238 62.9208 127.238 62.9208C126.627 62.7593 126.866 63.2856 126.69 63.3994C126.339 63.6271 125.919 63.7746 125.49 63.9907C125.324 64.036 125.237 64.0929 125.071 64.1382C124.905 64.1835 124.652 64.2857 124.486 64.331C124 64.3983 123.378 64.3054 122.949 64.5214C122.033 64.8048 121.242 65.3171 120.393 65.6807C119.632 65.9873 118.95 66.3056 118.189 66.6123C117.087 67.0781 116.063 67.5555 114.96 68.0213C114.2 68.3279 113.392 68.4173 112.699 68.8042C111.928 69.1794 111.07 69.6115 110.703 70.4677C110.486 70.8557 109.891 71.1171 109.452 71.4017C109.188 71.5724 108.924 71.7432 108.603 71.7653C108.282 71.7873 107.904 71.6606 107.593 71.6142C106.993 71.3841 106.568 71.0402 106.339 70.4453C106.214 70.2164 106.343 69.8853 106.384 69.6112C106.384 69.6112 106.462 69.6228 106.384 69.6112C106.357 68.2054 106.396 66.8798 108.363 66.4734C109.279 66.1899 110.205 65.838 111.121 65.5546C111.54 65.4071 112.047 65.2026 112.466 65.0551C113.403 64.6346 114.339 64.2141 115.353 63.8052C116.279 63.4533 117.206 63.1013 118.064 62.6692C118.24 62.5554 118.359 62.2928 118.39 62.0872C118.4 62.0186 118.11 61.8351 117.965 61.7433C116.375 61.225 114.852 60.7869 113.252 60.3372C112.418 60.0723 111.563 59.9444 110.652 59.6678C109.885 59.4831 109.129 59.2298 108.363 59.045C107.363 58.8253 106.364 58.6057 105.374 58.3175C103.919 57.9596 102.464 57.6017 100.998 57.3123C100.154 57.1159 99.2119 57.0449 98.3678 56.8485C97.679 56.6754 96.9126 56.4906 96.2238 56.3175C95.768 56.1792 95.3796 56.1211 94.9239 55.9828C93.6034 55.7852 92.283 55.5876 90.9626 55.39C89.9528 55.2389 88.9431 55.0878 87.9334 54.9367C87.312 54.8437 86.6232 54.6706 86.0121 54.509C85.3907 54.4161 84.7693 54.3231 84.1582 54.1616C82.615 53.8605 81.0616 53.6281 79.5184 53.3271C78.8194 53.2225 78.1306 53.0493 77.4315 52.9447C76.8102 52.8517 76.1785 52.8273 75.6246 52.8145C74.8478 52.6982 74.0711 52.582 73.2065 52.5227C72.4195 52.475 71.6325 52.4273 70.7679 52.368C69.9135 52.2402 69.0693 52.0438 68.2047 51.9845C67.5057 51.8798 66.7861 51.9123 66.0094 51.7961C65.388 51.7031 64.7095 51.4614 64.0881 51.3684C63.3011 51.3207 62.4262 51.33 61.6392 51.2823C61.5616 51.2707 61.5616 51.2707 61.4839 51.2591C60.1532 51.13 58.8328 50.9324 57.4244 50.7917C56.1714 50.6743 54.9858 50.6371 53.7328 50.5196C52.3919 50.4591 50.9835 50.3185 49.6426 50.258C48.3016 50.1974 46.9505 50.2055 45.6095 50.145C44.8225 50.0973 44.0458 49.9811 43.2588 49.9334C42.3165 49.8624 41.276 49.917 40.3337 49.846C39.3811 49.8437 38.3611 49.7611 37.4188 49.6902C36.3109 49.6645 35.1355 49.5587 34.0276 49.5331C33.163 49.4738 32.2881 49.483 31.4234 49.4237C30.7918 49.3993 30.1704 49.3063 29.6575 49.0193C29.2896 48.8241 29.0507 48.2978 28.9569 47.8633C28.8631 47.4288 29.0126 46.9606 29.1518 46.5609C29.3116 46.0242 29.7776 46.094 30.2539 46.0952C31.8483 46.0534 33.5205 46.0233 35.1047 46.0502C36.5336 46.0538 37.8642 46.1828 39.2828 46.2549C40.7791 46.3387 42.2857 46.3539 43.782 46.4376C44.9675 46.4749 46.1531 46.5122 47.4061 46.6296C48.5917 46.6668 49.7671 46.7726 51.0201 46.8901C52.3508 47.0191 53.6038 47.1365 54.9345 47.2656C56.9744 47.4307 59.0144 47.5958 61.1321 47.7725C61.9967 47.8319 62.8409 48.0283 63.6953 48.1561C64.1613 48.2258 64.6478 48.1585 65.1139 48.2282C65.9785 48.2875 66.8329 48.4154 67.6873 48.5433C67.765 48.5549 67.8426 48.5665 67.9203 48.5781C69.018 48.6723 70.2607 48.8583 71.5137 48.9757C72.6891 49.0815 73.9318 49.2675 75.1072 49.3733C76.1946 49.536 77.282 49.6987 78.3694 49.8614C79.1461 49.9777 80.0005 50.1055 80.7875 50.1532C81.6419 50.2811 82.4288 50.3287 83.273 50.5251C84.9041 50.7692 86.5249 51.0819 88.0784 51.3143C88.8551 51.4305 89.7095 51.5584 90.476 51.7432C92.0968 52.0558 93.64 52.3568 95.2609 52.6694C97.1147 53.0169 98.9583 53.433 100.724 53.8374C101.801 54.0687 102.868 54.3685 103.945 54.5997C105.556 54.9809 107.187 55.225 108.875 55.6178C110.263 55.8955 111.631 56.3104 113.018 56.5881C113.63 56.7497 114.173 56.831 114.784 56.9926C114.862 57.0042 114.872 56.9356 114.96 56.8787Z" fill="#FD97A9"/>
</svg>
